# xmcd CD database file
#
# Track frame offsets:
#	150
#	18230
#	36047
#	50460
#	65197
#	82430
#	95570
#	111162
#	131622
#	140312
#	160390
#	178170
#
# Disc length: 2527 seconds
#
# Revision: 0
# Processed by: cddbd v1.5.1PL2 Copyright (c) Steve Scherf et al.
# Submitted via: CDex 1.51
#
DISCID=ad09dd0c
DTITLE=B-Goes - Travel As Far As I Can
DYEAR=1992
DGENRE=CH-Rock/Pop
TTITLE0=Kisses and Dreams
TTITLE1=Johnny and Mary
TTITLE2=Danser Avec Moi Du Rhythm and Blues
TTITLE3=Sweet Dreams In My Mind
TTITLE4=Share A Bench With Me At School
TTITLE5=Spit At My Daddys Chevrolet
TTITLE6=Freezing As Never Before
TTITLE7=Ginger Beer At Rabins Bar
TTITLE8=Louisa
TTITLE9=It's The Smell Of Your Cigarette End (I'll Never Forget)
TTITLE10=My Mother Would Listen To The New Buddy Holly Again
TTITLE11=Travel As Far As I Can
EXTD=YEAR: 1992
EXTT0=
EXTT1=
EXTT2=
EXTT3=
EXTT4=
EXTT5=
EXTT6=
EXTT7=
EXTT8=
EXTT9=
EXTT10=
EXTT11=
PLAYORDER=
